<svg width="400" height="420" viewBox="0 0 400 420" xmlns="http://www.w3.org/2000/svg">
  <defs>
    <clipPath id="card-clip"><rect x="0" y="0" width="400" height="420" rx="18"/></clipPath>
  </defs>
  <!-- Ombres -->
  <rect x="8" y="8" width="400" height="420" rx="18" fill="#000000" opacity="0.4"/>
  <rect x="4" y="4" width="400" height="420" rx="18" fill="#000000" opacity="0.2"/>
  <!-- Carte -->
  <rect x="0" y="0" width="400" height="420" rx="18" fill="#0e0c1a"/>
  <rect x="0" y="0" width="400" height="1" rx="0" fill="rgba(255,255,255,0.06)"/>
  <rect x="0" y="0" width="400" height="420" rx="18" fill="none" stroke="#2a2040" stroke-width="1"/>
  <!-- Header -->
  <rect x="0" y="0" width="400" height="72" rx="18" fill="#7c3aed" clip-path="url(#card-clip)"/>
  <rect x="0" y="52" width="400" height="20" fill="#7c3aed"/>
  <!-- Icône balance -->
  <rect x="20" y="18" width="36" height="36" rx="9" fill="rgba(255,255,255,0.18)"/>
  <line x1="38" y1="26" x2="38" y2="46" stroke="white" stroke-width="2.2" stroke-linecap="round"/>
  <line x1="26" y1="32" x2="50" y2="32" stroke="white" stroke-width="2" stroke-linecap="round"/>
  <line x1="26" y1="32" x2="26" y2="39" stroke="white" stroke-width="1.8" stroke-linecap="round"/>
  <line x1="50" y1="32" x2="50" y2="39" stroke="white" stroke-width="1.8" stroke-linecap="round"/>
  <path d="M20 39 Q26 44 32 39" stroke="white" stroke-width="1.8" fill="none" stroke-linecap="round"/>
  <path d="M44 39 Q50 44 56 39" stroke="white" stroke-width="1.8" fill="none" stroke-linecap="round"/>
  <line x1="33" y1="46" x2="43" y2="46" stroke="white" stroke-width="2" stroke-linecap="round"/>
  <!-- Titre header -->
  <text x="66" y="34" font-family="Georgia,serif" font-size="17" font-weight="700" fill="white" letter-spacing="-0.3">Conformy</text>
  <text x="67" y="52" font-family="Helvetica,Arial,sans-serif" font-size="10" fill="rgba(255,255,255,0.6)" letter-spacing="1">RAPPORT DE CONFORMITÉ</text>
  <!-- Score cercle -->
  <circle cx="362" cy="36" r="26" fill="rgba(255,255,255,0.12)" stroke="rgba(255,255,255,0.28)" stroke-width="1.5"/>
  <text x="362" y="31" text-anchor="middle" font-family="Georgia,serif" font-size="17" font-weight="700" fill="white">87</text>
  <text x="362" y="47" text-anchor="middle" font-family="Helvetica,Arial,sans-serif" font-size="10" fill="rgba(255,255,255,0.55)">/100</text>
  <!-- URL -->
  <rect x="20" y="90" width="360" height="34" rx="8" fill="rgba(255,255,255,0.04)" stroke="rgba(255,255,255,0.06)" stroke-width="0.5"/>
  <text x="34" y="103" font-family="Helvetica,Arial,sans-serif" font-size="9" fill="rgba(255,255,255,0.3)" letter-spacing="0.8">URL ANALYSÉE</text>
  <text x="34" y="117" font-family="Helvetica,Arial,sans-serif" font-size="11" fill="#818cf8">https://monsite-ecommerce.fr</text>
  <!-- Statut -->
  <rect x="20" y="136" width="116" height="24" rx="12" fill="rgba(74,222,128,0.12)" stroke="rgba(74,222,128,0.25)" stroke-width="0.5"/>
  <circle cx="36" cy="148" r="4" fill="#4ade80"/>
  <text x="46" y="152" font-family="Helvetica,Arial,sans-serif" font-size="11" fill="#4ade80" font-weight="600">Conforme</text>
  <text x="152" y="152" font-family="Helvetica,Arial,sans-serif" font-size="10" fill="rgba(255,255,255,0.28)">17 mars 2026</text>
  <!-- Séparateur -->
  <line x1="20" y1="174" x2="380" y2="174" stroke="rgba(255,255,255,0.06)" stroke-width="0.5"/>
  <text x="20" y="192" font-family="Helvetica,Arial,sans-serif" font-size="9" fill="rgba(255,255,255,0.28)" letter-spacing="0.8">POINTS VÉRIFIÉS</text>
  <!-- Lignes résultats -->
  <circle cx="30" cy="214" r="7" fill="rgba(74,222,128,0.15)" stroke="rgba(74,222,128,0.3)" stroke-width="0.5"/>
  <text x="30" y="218" text-anchor="middle" font-family="Helvetica,Arial,sans-serif" font-size="9" fill="#4ade80">✓</text>
  <text x="46" y="218" font-family="Helvetica,Arial,sans-serif" font-size="12" fill="rgba(255,255,255,0.65)">Mentions légales</text>
  <rect x="296" y="207" width="84" height="14" rx="7" fill="rgba(74,222,128,0.1)"/>
  <text x="338" y="218" text-anchor="middle" font-family="Helvetica,Arial,sans-serif" font-size="10" fill="#4ade80">Présentes</text>

  <circle cx="30" cy="240" r="7" fill="rgba(74,222,128,0.15)" stroke="rgba(74,222,128,0.3)" stroke-width="0.5"/>
  <text x="30" y="244" text-anchor="middle" font-family="Helvetica,Arial,sans-serif" font-size="9" fill="#4ade80">✓</text>
  <text x="46" y="244" font-family="Helvetica,Arial,sans-serif" font-size="12" fill="rgba(255,255,255,0.65)">RGPD &amp; Confidentialité</text>
  <rect x="296" y="233" width="84" height="14" rx="7" fill="rgba(74,222,128,0.1)"/>
  <text x="338" y="244" text-anchor="middle" font-family="Helvetica,Arial,sans-serif" font-size="10" fill="#4ade80">Présentes</text>

  <circle cx="30" cy="266" r="7" fill="rgba(248,113,113,0.15)" stroke="rgba(248,113,113,0.3)" stroke-width="0.5"/>
  <text x="30" y="270" text-anchor="middle" font-family="Helvetica,Arial,sans-serif" font-size="9" fill="#f87171">✗</text>
  <text x="46" y="270" font-family="Helvetica,Arial,sans-serif" font-size="12" fill="rgba(255,255,255,0.65)">Bandeau cookies</text>
  <rect x="296" y="259" width="84" height="14" rx="7" fill="rgba(248,113,113,0.1)"/>
  <text x="338" y="270" text-anchor="middle" font-family="Helvetica,Arial,sans-serif" font-size="10" fill="#f87171">Manquant</text>

  <circle cx="30" cy="292" r="7" fill="rgba(74,222,128,0.15)" stroke="rgba(74,222,128,0.3)" stroke-width="0.5"/>
  <text x="30" y="296" text-anchor="middle" font-family="Helvetica,Arial,sans-serif" font-size="9" fill="#4ade80">✓</text>
  <text x="46" y="296" font-family="Helvetica,Arial,sans-serif" font-size="12" fill="rgba(255,255,255,0.65)">CGV / CGU</text>
  <rect x="296" y="285" width="84" height="14" rx="7" fill="rgba(74,222,128,0.1)"/>
  <text x="338" y="296" text-anchor="middle" font-family="Helvetica,Arial,sans-serif" font-size="10" fill="#4ade80">Présentes</text>

  <circle cx="30" cy="318" r="7" fill="rgba(253,224,71,0.12)" stroke="rgba(253,224,71,0.25)" stroke-width="0.5"/>
  <text x="30" y="322" text-anchor="middle" font-family="Helvetica,Arial,sans-serif" font-size="10" fill="#fde047">~</text>
  <text x="46" y="322" font-family="Helvetica,Arial,sans-serif" font-size="12" fill="rgba(255,255,255,0.65)">Droits utilisateurs</text>
  <rect x="296" y="311" width="84" height="14" rx="7" fill="rgba(253,224,71,0.08)"/>
  <text x="338" y="322" text-anchor="middle" font-family="Helvetica,Arial,sans-serif" font-size="10" fill="#fde047">Partiel</text>
  <!-- Séparateur -->
  <line x1="20" y1="344" x2="380" y2="344" stroke="rgba(255,255,255,0.06)" stroke-width="0.5"/>
  <!-- Recommandation -->
  <rect x="20" y="356" width="360" height="44" rx="10" fill="rgba(124,58,237,0.1)" stroke="rgba(124,58,237,0.2)" stroke-width="0.5"/>
  <text x="34" y="373" font-family="Helvetica,Arial,sans-serif" font-size="9" fill="rgba(167,139,250,0.7)" letter-spacing="0.8">RECOMMANDATION</text>
  <text x="34" y="390" font-family="Helvetica,Arial,sans-serif" font-size="11" fill="rgba(255,255,255,0.5)">Installer un bandeau de consentement cookies</text>
</svg>
